<svg xmlns="http://www.w3.org/2000/svg" width="16" height="16" viewBox="0 0 16 16"><circle cx="8" cy="8" r="8" fill="rgba(255,255,255,0.6)"/><path d="M75.576,94.069l-.039-.1a.012.012,0,0,0-.006-.007l-.1-.045a8.472,8.472,0,0,0-2.953-.5H71.344a.012.012,0,0,0-.005.023l2.331,1.117a.012.012,0,0,1-.008.022,12.259,12.259,0,0,0-6.3,0,.012.012,0,0,1-.008-.022l2.413-1.115a.012.012,0,0,0-.005-.023H68.538a8.472,8.472,0,0,0-2.953.5l-.1.045a.012.012,0,0,0-.006.007l-.039.1a19.459,19.459,0,0,0-.811,7.873l.013.117.093.072a9.059,9.059,0,0,0,4.1,1.652l.14.018a.1.1,0,0,0,.105-.064l.707-1.888a.1.1,0,0,0-.078-.133l-.217-.034a5.283,5.283,0,0,1-2.732-1.255.024.024,0,0,1,.024-.04l.238.092a5.111,5.111,0,0,0,.555.2,12.673,12.673,0,0,0,2.928.348v-.017h0v.017a12.666,12.666,0,0,0,2.926-.348,5.11,5.11,0,0,0,.555-.2l.238-.092a.024.024,0,0,1,.024.04,5.284,5.284,0,0,1-2.732,1.25l-.217.034a.1.1,0,0,0-.078.133l.707,1.892a.1.1,0,0,0,.105.064l.141-.018a9.059,9.059,0,0,0,4.1-1.652l.093-.072.013-.117A19.46,19.46,0,0,0,75.576,94.069ZM68.2,99.209a1.409,1.409,0,1,1,1.274-1.274A1.41,1.41,0,0,1,68.2,99.209Zm4.87,0a1.409,1.409,0,1,1,1.274-1.274A1.41,1.41,0,0,1,73.072,99.209Z" transform="translate(-62.519 -90.502)" fill="rgba(255,255,255,0.6)"/></svg>