<svg xmlns="http://www.w3.org/2000/svg" width="16" height="16" viewBox="0 0 16 16"><path d="M23.576,24.216a32.129,32.129,0,0,0-1.83-2.849,5.015,5.015,0,0,0-2.74,3.452h.049A18.934,18.934,0,0,0,23.576,24.216Z" transform="translate(-15.895 -17.87)" fill="rgba(255,255,255,0.6)"/><path d="M46.406,19.641a5,5,0,0,0-4.424-1.112,26.957,26.957,0,0,1,1.84,2.886A5.711,5.711,0,0,0,46.406,19.641Z" transform="translate(-35.11 -15.388)" fill="rgba(255,255,255,0.6)"/><path d="M56.073,32.451q.051.12.1.239a9.383,9.383,0,0,1,1.14-.066,12.442,12.442,0,0,1,2.315.223A4.967,4.967,0,0,0,58.522,29.8a6.812,6.812,0,0,1-2.77,1.948C55.864,31.98,55.972,32.215,56.073,32.451Z" transform="translate(-46.626 -24.923)" fill="rgba(255,255,255,0.6)"/><path d="M23.658,44.681c.055-.018.111-.034.166-.05-.119-.267-.247-.535-.382-.8a18.723,18.723,0,0,1-5,.711h-.131c0,.041,0,.082,0,.123a4.972,4.972,0,0,0,1.259,3.31A8,8,0,0,1,23.658,44.681Z" transform="translate(-15.315 -36.657)" fill="rgba(255,255,255,0.6)"/><path d="M8,0a8,8,0,1,0,8,8A8,8,0,0,0,8,0ZM8,13.914A5.914,5.914,0,1,1,13.921,8,5.924,5.924,0,0,1,8,13.914Z" fill="rgba(255,255,255,0.6)"/><path d="M60.327,52.245a21.818,21.818,0,0,1,.959,3.508,5,5,0,0,0,2.1-3.3,7.44,7.44,0,0,0-2.053-.287A6.64,6.64,0,0,0,60.327,52.245Z" transform="translate(-50.453 -43.631)" fill="rgba(255,255,255,0.6)"/><path d="M34.154,54.133a6.908,6.908,0,0,0-3.92,3.1,5,5,0,0,0,4.984.652,20.9,20.9,0,0,0-1.058-3.755Z" transform="translate(-25.285 -45.271)" fill="rgba(255,255,255,0.6)"/></svg>