<svg xmlns="http://www.w3.org/2000/svg" width="13.01" height="12" viewBox="0 0 13.01 12"><g transform="translate(0 -1.178)"><path d="M9.675,6.029s.526-.4.126-.8-.79.116-.79.116L4.984,9.372s-.943,1.217-1.66.481.481-1.66.481-1.66L9.084,2.914s1.232-1.357,2.39-.2-.2,2.392-.2,2.392L5.338,11.038s-1.9,2.192-3.655.435S2.14,7.84,2.14,7.84l4.5-4.5s.5-.421.126-.8-.8.126-.8.126L.8,7.829a3.056,3.056,0,0,0,.228,4.317,3.058,3.058,0,0,0,4.319.229l7.1-7.1a2.3,2.3,0,0,0-.273-3.262,2.3,2.3,0,0,0-3.262-.274L2.806,7.846a1.75,1.75,0,0,0-.145,2.692,1.72,1.72,0,0,0,2.67-.167Z" transform="translate(0)" fill="#fff"/></g></svg>