<svg xmlns="http://www.w3.org/2000/svg" width="16" height="16" viewBox="0 0 16 16"><g transform="translate(-0.001)"><circle cx="8" cy="8" r="8" transform="translate(0.001 0)" fill="rgba(255,255,255,0.6)"/><g transform="translate(3.581 4.853)"><path d="M34.424,34.925a3.815,3.815,0,0,1-1.1.3,1.917,1.917,0,0,0,.841-1.058,3.828,3.828,0,0,1-1.214.464,1.914,1.914,0,0,0-3.259,1.744,5.428,5.428,0,0,1-3.942-2,1.914,1.914,0,0,0,.592,2.553,1.9,1.9,0,0,1-.866-.239c0,.008,0,.016,0,.024a1.913,1.913,0,0,0,1.534,1.875,1.92,1.92,0,0,1-.863.033,1.914,1.914,0,0,0,1.786,1.328,3.86,3.86,0,0,1-2.831.792,5.438,5.438,0,0,0,8.372-4.582c0-.083,0-.165-.006-.247a3.878,3.878,0,0,0,.954-.99Z" transform="translate(-25.103 -34.028)" fill="rgba(255,255,255,0.6)"/></g></g></svg>